<svg width="1449" height="2366" viewBox="0 0 1449 2366" fill="none" xmlns="http://www.w3.org/2000/svg">
<g clip-path="url(#clip0_14_3)">
<path d="M0 837.121L29.7561 782.742V781.447C45.2811 751.667 62.0997 727.066 67.2748 727.066C71.156 727.066 85.3872 747.783 98.3246 774.972C111.262 802.164 152.662 879.848 260.042 1070.18L182.418 1219.07C138.431 1300.64 95.737 1377.03 86.6809 1387.39C73.7434 1404.22 65.9809 1399.04 3.88124 1296.76L120.318 1076.65L0 837.121Z" fill="#727E7A"/>
<path d="M113.538 155.371V77.6853C113.538 34.9585 116.126 0 120.007 0C123.888 0 160.113 16.8318 200.219 37.5479C244.206 58.264 302.424 103.58 339.943 143.718C376.168 182.561 425.33 252.477 451.205 297.793C478.374 344.405 505.543 405.259 514.599 433.743C528.83 480.354 527.536 497.187 497.78 589.113C479.668 646.082 456.381 699.168 447.325 708.231C433.093 719.884 429.212 703.051 420.156 617.598C413.687 536.028 400.75 489.417 367.112 420.796C342.531 371.595 299.837 304.267 272.668 273.194C245.499 242.119 198.926 203.276 113.538 155.371Z" fill="#727E7A"/>
<path d="M884.608 200.687C911.777 179.971 955.765 155.371 980.345 146.308C1004.93 137.244 1055.38 130.771 1091.61 132.065C1136.89 134.655 1175.7 147.603 1219.69 174.793C1254.62 196.803 1301.19 236.94 1323.19 265.426C1345.18 293.911 1377.53 352.173 1426.69 472.586L1430.57 1152.33C1431.86 1526.52 1429.28 1835.97 1424.1 1841.14C1417.63 1845.03 1386.58 1845.03 1290.84 1832.08V1184.7C1290.84 644.789 1288.26 525.671 1271.44 469.997C1258.5 423.385 1235.21 384.542 1200.28 349.585C1165.35 314.626 1133.01 295.204 1100.66 290.025C1073.5 284.846 1030.8 287.436 1006.22 295.204C981.64 302.974 940.239 331.458 915.659 358.648C889.784 387.132 799.221 548.977 537.885 1068.17L669.847 1340.07C743.591 1490.26 810.866 1635.28 821.216 1663.76C832.859 1701.31 838.035 1786.75 838.035 2214.04H1277.91L1311.54 2256.75C1330.95 2278.77 1352.95 2311.14 1360.71 2326.67C1368.47 2343.51 1372.35 2359.04 1368.47 2362.93C1364.59 2366.8 1211.93 2365.52 697.016 2349.98L689.254 1663.76L590.929 1463.07C536.592 1353.02 483.547 1250.73 473.198 1236.49C455.085 1211.89 447.324 1224.84 229.975 1657.29V1829.48C229.975 1970.61 226.092 2006.87 206.686 2039.25C193.749 2059.96 165.287 2091.04 100.6 2136.34V1618.44L204.099 1421.64C262.317 1312.88 324.418 1192.47 378.754 1087.6L262.317 864.898C198.923 741.894 121.3 591.704 91.5434 530.85C39.7937 424.68 38.5 418.206 46.2625 332.752C51.4374 283.552 60.4936 247.298 68.2561 249.889C76.0185 252.477 165.287 411.733 453.792 951.645L588.341 673.273C663.378 520.492 748.765 359.943 778.521 317.216C809.572 274.489 857.441 222.697 884.608 200.687Z" fill="#727E7A"/>
<path d="M909.191 524.376C935.067 481.649 968.703 433.743 984.229 418.206V416.91C998.459 401.375 1013.98 388.426 1019.16 388.426C1023.04 388.426 1024.33 410.438 1020.45 436.332C1016.57 463.523 1012.69 739.306 1012.69 1611.97L1052.8 1696.13C1074.79 1742.74 1112.31 1803.6 1136.89 1830.78C1161.47 1859.26 1209.34 1895.53 1245.56 1912.35C1280.5 1927.9 1334.83 1942.13 1364.59 1942.13C1396.93 1942.13 1422.81 1948.61 1425.4 1957.68C1429.28 1966.74 1435.74 2002.98 1448.68 2103.97L1354.24 2096.21C1284.38 2089.74 1240.39 2078.08 1188.64 2050.9C1149.83 2030.18 1090.32 1980.97 1054.09 1942.13C1019.16 1903.29 976.466 1847.61 959.647 1819.13C942.828 1790.64 916.954 1732.39 901.429 1689.66C872.966 1615.86 871.673 1589.96 860.029 602.062L909.191 524.376Z" fill="#727E7A"/>
<path d="M411.1 1709.07C411.1 1627.51 417.567 1540.76 426.624 1518.75V1517.45C434.386 1495.44 446.03 1476.02 452.499 1476.02C457.675 1476.02 478.374 1500.62 499.074 1530.4C530.123 1578.3 534.006 1599.02 539.18 1714.26C541.768 1786.75 536.593 1877.4 528.83 1916.24C521.067 1955.08 496.487 2023.7 475.787 2067.72C453.792 2113.03 409.806 2179.07 376.168 2215.32C339.943 2252.88 280.431 2296.89 236.443 2318.9C193.75 2339.62 148.469 2356.46 136.825 2356.46C117.419 2356.46 113.538 2344.81 113.538 2291.72C113.538 2226.97 113.538 2226.97 175.638 2195.9C209.276 2179.07 264.905 2133.75 298.544 2096.21C345.119 2044.41 368.405 2004.28 386.518 1942.13C404.63 1879.98 411.1 1819.12 411.1 1709.07Z" fill="#727E7A"/>
</g>
<defs>
<clipPath id="clip0_14_3">
<rect width="1448.8" height="2365.18" fill="white"/>
</clipPath>
</defs>
</svg>
